<svg width="374" height="237" viewBox="0 0 374 237" fill="red" xmlns="http://www.w3.org/2000/svg">
<path d="M138 146.099C143.4 140.699 149.6 135.199 156.6 129.499C157.1 129.099 157.6 128.699 158.1 128.299C164.2 123.399 170.9 118.399 178 113.399L178.4 113.099C179.1 112.599 188.5 105.399 200.9 92.7994L200.7 93.4994L192.5 130.099C143.1 164.499 117.5 197.199 124.3 218.899C125.8 223.699 131.4 235.099 150.3 236.399C175.5 238.199 190.5 215.999 198.5 197.099C206 179.699 209 162.199 209.4 159.799L212.7 143.699L245 123.999L234 177.499C234 177.499 233.9 177.699 233.9 178.099C231.6 189.999 247.8 195.799 253.9 185.299C262.7 169.899 274.9 155.999 290.3 144.699C315.7 125.999 345.5 117.599 374 118.999C367.4 111.499 356.8 108.699 347.9 107.799C340.1 106.999 332.3 107.599 324.8 109.299C298.1 115.299 278.6 127.399 265.6 138.399C265.5 138.499 265.3 138.699 265.2 138.799L271.8 106.399C321.2 71.9994 346.8 39.2994 340 17.5994C338.5 12.7994 332.9 1.39936 314 0.0993626C269.3 -3.00064 256.3 67.3994 254.8 76.5994L251.5 92.6994C243.7 97.8994 235 103.499 225.3 109.199L219.4 112.399L233.3 47.8994C233.3 47.8994 233.3 47.8994 233.3 47.7994C236 35.7994 219.6 29.4994 213.4 40.0994C212 42.4994 210.5 44.7994 208.8 47.0994C189.2 73.6994 166.2 92.6994 164.3 94.1994C158.2 98.4994 152.4 102.699 147 106.999C145.1 101.599 143.4 95.4994 142.3 88.4994C141.5 81.9994 141 74.8994 141 67.2994L141.3 58.3994C141.3 58.2994 141.3 58.2994 141.3 58.1994C141.9 47.2994 127.3 43.1994 122 52.7994C120.9 54.6994 119.8 56.5994 118.6 58.4994C110 72.1994 98.7 84.5994 84.8 94.7994C59 113.799 28.9 122.099 0 120.399C6.6 128.599 17.6 131.499 26.8 132.499C34.6 133.299 42.4 132.699 49.9 130.999C76.6 124.999 96.4 113.299 109.1 101.899L119.1 92.7994L120.2 91.7994C120.2 91.7994 122.1 107.899 127.1 123.799C127.3 124.499 127.5 125.099 127.8 125.799C128 125.899 130.9 136.199 138 146.099ZM314.1 22.0994C314.1 22.0994 314.2 22.0994 314.1 22.0994C317 22.2994 318.8 25.1994 317.9 27.7994C316.3 32.5994 311.9 40.6994 301.4 51.9994C296.2 57.5994 288.9 64.6994 278.8 72.8994C283.9 51.5994 296.3 20.8994 314.1 22.0994ZM150.3 214.899C150.2 214.899 150.2 214.899 150.3 214.899C147.4 214.699 146.1 212.599 146.5 209.199C147.1 204.199 152.5 196.299 163 184.999C168.2 179.399 175.5 172.399 185.6 164.099C180.5 185.399 168 216.099 150.3 214.899Z" fill="transparent"/>
</svg>
